<svg xmlns="http://www.w3.org/2000/svg" xmlns:xlink="http://www.w3.org/1999/xlink" version="1.1" viewBox="0 0 288 90">
<defs>
<clipPath id="clip_0">
<path transform="matrix(1,0,0,-1,0,90)" d="M0 90H288V0H0Z"/>
</clipPath>
</defs>
<g id="layer_1" data-name="">
<path transform="matrix(1,0,0,-1,0,90)" d="M95.941 75.798H113.433V12.651997H95.941Z" fill="#035b98"/>
<path transform="matrix(1,0,0,-1,122.6123,77.3486)" d="M0 0V63.146H48.102V50.904H17.491V37.874H45.65V25.628H17.491V12.249H48.102V0Z" fill="#035b98"/>
<path transform="matrix(1,0,0,-1,180.5146,77.3486)" d="M0 0V63.146H48.089V50.904H17.486V37.874H45.637V25.628H17.486V12.249H48.089V0Z" fill="#035b98"/>
<path transform="matrix(1,0,0,-1,238.3975,77.3486)" d="M0 0V63.146H48.103V50.904H17.502V37.874H45.654V25.628H17.502V12.249H48.103V0Z" fill="#035b98"/>
<g clip-path="url(#clip_0)">
<path transform="matrix(1,0,0,-1,40.499,52.1113)" d="M0 0C-.232-4.459-.289-8.585-.618-13.056 1.146-13.216 3.138-13.37 5.02-13.096L4.458-.635 4.359-.042C2.926-.098 1.57-.155 0 0M-11.022 12.521C-13.195 11.431-16.393 9.785-16.041 6.803-15.575 5.176-13.813 4.124-12.418 3.454-4.709 .059 5.524-.058 13.664 2.478 15.673 3.252 18.37 4.376 18.739 6.837 18.717 8.871 16.565 10.152 15.018 10.93V11.026C15.557 11.24 16.177 11.431 16.736 11.49V11.545C14.009 12.033 11.378 12.746 8.737 13.445 9.246 12.286 9.613 11.064 10.037 9.86 10.83 10.113 11.644 10.306 12.5 10.422 13.893 9.881 15.886 9.105 16.083 7.364 16.238 5.737 14.457 4.943 13.331 4.282 7.362 2.11 .645 1.898-5.582 3.55-7.301 4.092-9.784 4.787-9.997 6.977-8.776 9.86-5.619 10.46-2.982 11.16-4.337 12.033-5.715 12.806-7.029 13.777-8.447 13.699-9.744 13.078-11.022 12.521M2.167 29.914 1.395 27.434-2.481 16.333C-1.51 16.234-.309 16.333 .645 16.234V16.143L.078 3.587 .175 3.454C1.415 3.333 2.963 3.271 4.226 3.487V3.685L3.721 15.863 3.796 16.275 7.207 16.333C5.505 20.826 3.856 25.365 2.268 29.914ZM.367 35.491C3.218 37.434 5.776 34.719 7.985 33.167 16.527 26.292 24.587 18.422 30.728 9.536 31.503 8.389 31.853 6.608 31.158 5.311 29.565 2.654 27.418 .23 25.381-2.23V-2.365C20.303-7.771 14.94-13.328 9.145-17.905 6.317-19.627 3.721-23.386 .078-21.058-8.217-14.996-16.155-7.459-22.884 .624-24.025 2.4-25.807 3.856-26.6 5.872-27.708 8.601-25.266 10.56-23.868 12.615-17.008 21.077-8.487 29.375 .367 35.491M7.516 43.574 4.359 48.047C3.972 48.284 3.489 48.674 3.062 48.789 2.13 49.192 1.126 48.705 .367 48.127L-5.347 40.686C-14.511 29.336-25.36 18.736-37.198 10.612-38.133 9.881-39.525 9.167-39.814 7.962-40.125 6.878-39.56 5.984-38.888 5.311-29.41-1.219-20.347-8.969-12.281-17.808-10.849-19.312-9.688-20.809-8.288-22.221-5.929-25.36-3.157-28.523-.988-31.892-.309-32.604-.191-33.771 .872-34.118 1.704-34.406 2.732-34.602 3.526-34.118L4.316-33.325C14.124-19.432 26.562-6.955 40.458 3.119 41.85 4.361 44.505 4.824 44.544 7.13 44.445 8.194 43.826 9.241 42.913 9.823L42.685 9.86C35.533 14.725 28.871 20.226 22.593 26.468L15.656 33.714C12.845 36.831 10.114 40.281 7.516 43.574M-.658 37.199C2.13 39.37 5.639 37.567 7.985 35.572 10.442 33.693 13.001 31.566 15.248 29.39L15.656 29.156C21.876 23.385 27.653 16.971 32.399 10.189 33.168 9.009 33.848 7.672 33.419 6.105 31.835 2.149 28.621-1.005 25.808-4.459 19.725-11.007 13.309-17.343 6.125-22.397 4.671-23.425 2.712-24.374 .971-23.558-4.317-20.79-8.776-16.257-13.403-12.125-18.771-7.147-24.158-1.354-28.227 4.708-28.831 5.56-29.001 6.608-28.984 7.729-28.46 9.823-27.028 11.545-25.671 13.309-20.864 19.434-14.976 25.245-9.03 30.553-8.893 30.689-8.639 30.979-8.424 31.117-5.87 33.324-3.333 35.279-.658 37.199" fill="#035b98"/>
<path transform="matrix(1,0,0,-1,57.0698,80.2607)" d="M0 0H-.602V.763H-.126C.132 .763 .481 .737 .481 .409 .481 .062 .303 0 0 0M1.199 .342C1.199 1.065 .721 1.293-.097 1.293H-1.277V-1.865H-.602V-.537H-.281L.446-1.865H1.251L.437-.479C.863-.444 1.199-.237 1.199 .342M-.114-2.545V-2.535C-1.277-2.545-2.215-1.64-2.215-.284-2.215 1.065-1.277 1.963-.114 1.963 1.022 1.963 1.99 1.065 1.99-.284 1.99-1.64 1.022-2.545-.114-2.545M-.114 2.647C-1.673 2.647-3.06 1.567-3.06-.284-3.06-2.14-1.673-3.224-.114-3.224 1.436-3.224 2.825-2.14 2.825-.284 2.825 1.567 1.436 2.647-.114 2.647" fill="#035b98" fill-rule="evenodd"/>
</g>
</g>
</svg>
