<svg xmlns="http://www.w3.org/2000/svg" xmlns:xlink="http://www.w3.org/1999/xlink" version="1.1" viewBox="0 0 348.671 198">
<defs>
<clipPath id="clip_0">
<path transform="matrix(1,0,0,-1,0,198)" d="M0 198H348.671V0H0Z"/>
</clipPath>
</defs>
<g id="layer_1" data-name="">
<g clip-path="url(#clip_0)">
<path transform="matrix(1,0,0,-1,19.7729,123.4043)" d="M0 0-6.08-11.548C-5.229-11.609-4.517-11.609-3.771-11.609H-1.46C-.577-11.609 .034-11.609 .882-11.548ZM5.332-21.665C3.973-21.665 3.023-21.698 1.698-21.731L1.494-21.526C1.392-19.966 1.357-18.847 1.221-17.279L.984-14.329C.136-14.295-1.528-14.295-2.378-14.295H-4.212C-5.128-14.295-6.011-14.295-7.472-14.329L-8.795-16.875C-9.611-18.436-10.154-19.56-10.934-21.123L-11.071-21.427-11.343-21.631C-12.631-21.631-13.549-21.631-14.873-21.665L-15.01-21.357C-14.398-20.208-5.229-3.972-2.038 2.21L-1.765 2.343C0 2.38 1.698 2.442 2.988 2.442L3.193 2.28C3.329-.576 4.585-13.445 5.535-21.459Z" fill="#1d1d1b"/>
<path transform="matrix(1,0,0,-1,41.7471,129.957)" d="M0 0C-.271 .068-.847 .103-1.562 .103-6.18 .103-8.455-1.905-9.677-4.479-9.915-4.995-10.526-6.487-10.526-8.114-10.526-10.627-9.134-12.633-6.315-12.633-5.5-12.633-3.328-12.022-2.444-10.935ZM.102-15.044C-1.086-15.044-1.899-15.078-3.09-15.146L-3.226-14.906-2.955-13.619C-4.04-14.397-5.466-15.347-7.844-15.347-11.918-15.347-14.261-12.294-14.261-8.558-14.261-6.687-13.616-4.245-12.462-2.378-9.609 2.136-5.127 2.72-1.697 2.72-.847 2.72-.237 2.686 .61 2.615 1.799 8.149 2.038 9.336 2.276 11.036L2.545 11.273C3.906 11.477 4.822 11.648 6.18 11.888L6.35 11.683C4.822 5.942 1.222-9.917 .375-14.838Z" fill="#1d1d1b"/>
<path transform="matrix(1,0,0,-1,54.2769,145.0352)" d="M0 0C-1.46-.034-2.478-.067-3.939-.138L-4.244 .071C-4.48 3.228-5.772 13.651-6.213 17.282L-6.008 17.521C-4.718 17.521-3.803 17.591-2.547 17.693L-2.308 17.49C-2.172 15.555-2.104 14.193-1.934 12.259L-1.12 2.784C4.618 13.923 5.367 15.349 6.386 17.454L6.691 17.591H7.982C8.661 17.591 9.136 17.591 9.816 17.623L9.984 17.386C8.966 15.625 7.678 13.517 6.623 11.612L3.771 6.489C2.549 4.313 1.462 2.409 .306 .172Z" fill="#1d1d1b"/>
<path transform="matrix(1,0,0,-1,70.9858,142.626)" d="M0 0C1.051 0 2.749 .481 3.941 1.701 4.789 5.164 5.468 8.729 6.384 12.636 5.977 12.636 5.468 12.701 4.925 12.701 1.666 12.701-1.628 11.687-3.328 7.646-3.531 7.169-4.074 5.808-4.074 4.214-4.074 1.8-2.647 0 0 0M6.555-2.443H5.672C4.821-2.443 4.211-2.477 3.362-2.51L3.192-2.305 3.429-.95C1.834-2.237 .137-2.646-1.528-2.646-5.535-2.646-7.81 .344-7.81 3.977-7.81 6.487-6.725 8.831-6.213 9.717-3.393 14.674 1.631 15.25 5.197 15.25 6.793 15.25 10.255 15.182 10.255 15.182L10.426 14.943C7.675 2.96 7.234 1.025 6.793-2.237Z" fill="#1d1d1b"/>
<path transform="matrix(1,0,0,-1,97.1689,145.0693)" d="M0 0C-1.291 0-2.172-.033-3.464-.104L-3.6 .139C-3.124 2.412-2.648 3.94-2.172 6.18L-1.359 10.056C-1.256 10.563-.985 11.646-.985 12.566-.985 15.079-3.192 15.181-3.871 15.181-5.943 15.181-7.572 13.957-8.353 13.379-9.305 9-10.291 4.617-11.106 .206L-11.342 0C-12.633 0-13.515-.033-14.807-.104L-14.975 .139C-13.856 4.617-11.716 14.061-11.41 17.117L-11.172 17.353C-9.848 17.524-8.897 17.693-7.572 17.964L-7.401 17.728-7.878 15.993C-5.4 17.894-2.954 18.066-2.172 18.066-1.155 18.066 2.75 17.894 2.75 13.551 2.75 12.431 2.31 10.154 1.629 6.998L1.121 4.586C.781 2.953 .475 1.839 .271 .206Z" fill="#1d1d1b"/>
<path transform="matrix(1,0,0,-1,114.4536,144.5273)" d="M0 0C-1.189-.679-3.194-.948-4.381-.948-8.761-.948-11.784 2.347-11.784 6.657-11.784 9.479-10.56 13.856-6.825 16.133-4.855 17.32-2.784 17.493-1.867 17.493 .511 17.493 2.378 16.914 3.395 16.133L3.497 15.894C3.124 14.911 2.919 14.2 2.649 13.211L2.309 13.11C1.767 14.026 .272 14.81-1.527 14.81-5.773 14.81-8.082 10.325-8.082 6.931-8.082 2.959-4.992 1.8-3.36 1.8-2.784 1.8-1.018 1.87 .781 3.433L1.052 3.298C.68 2.175 .475 1.396 .205 .239Z" fill="#1d1d1b"/>
<path transform="matrix(1,0,0,-1,125.7285,122.6543)" d="M0 0C-1.324-.172-2.24-.273-3.565-.479L-3.767-.204C-3.498 .95-3.292 1.763-3.056 2.919L-2.749 3.155C-1.426 3.325-.508 3.427 .78 3.633L1.054 3.396C.749 2.272 .544 1.422 .273 .271ZM-4.855-22.381C-6.179-22.381-7.129-22.415-8.454-22.481L-8.625-22.276C-7.539-18.341-5.126-7.134-4.959-5.298L-4.72-5.062C-3.328-4.891-2.376-4.758-1.018-4.521L-.849-4.758C-1.018-4.722-3.837-17.659-4.618-22.209Z" fill="#1d1d1b"/>
<path transform="matrix(1,0,0,-1,140.5029,145.0693)" d="M0 0C-1.291 0-2.173-.033-3.462-.104L-3.6 .139C-3.124 2.412-2.648 3.94-2.173 6.18L-1.356 10.056C-1.256 10.563-.984 11.646-.984 12.566-.984 15.079-3.192 15.181-3.87 15.181-5.941 15.181-7.571 13.957-8.353 13.379-9.303 9-10.289 4.617-11.105 .206L-11.342 0C-12.632 0-13.515-.033-14.807-.104L-14.975 .139C-13.855 4.617-11.716 14.061-11.41 17.117L-11.172 17.353C-9.848 17.524-8.896 17.693-7.571 17.964L-7.402 17.728-7.877 15.993C-5.397 17.894-2.954 18.066-2.173 18.066-1.156 18.066 2.751 17.894 2.751 13.551 2.751 12.431 2.309 10.154 1.629 6.998L1.121 4.586C.783 2.953 .477 1.839 .272 .206Z" fill="#1d1d1b"/>
<path transform="matrix(1,0,0,-1,160.0303,130.0557)" d="M0 0C0 0-1.018 .029-1.326 .029-4.381 .029-7.676-.513-9.544-4.482-10.358-6.253-10.46-7.644-10.46-8.391-10.46-11.924-8.186-12.736-6.488-12.736-4.62-12.736-3.261-11.784-2.513-11.073ZM4.176 2.442C3.227-1.396 2.375-4.896 1.56-8.729L.611-13.213C-.579-18.85-1.562-23.602-9-23.602-11.036-23.602-14.092-23.128-15.995-21.058V-20.783C-15.484-20.003-15.146-19.428-14.636-18.612H-14.366C-13.447-19.802-11.75-21.025-9.238-21.025-4.176-21.025-3.77-16.337-3.396-15.18L-3.058-13.792C-5.298-15.35-7.302-15.388-8.048-15.388-12.057-15.388-14.16-12.331-14.16-8.799-14.16-7.951-14.026-5.064-12.225-2.279-9.032 2.644-3.938 2.644-.034 2.644 1.664 2.644 4.04 2.714 4.04 2.714Z" fill="#1d1d1b"/>
<path transform="matrix(1,0,0,-1,182.9863,145.0693)" d="M0 0C-1.325 0-2.241-.033-3.6-.066L-3.769 .139C-2.953 3.469 .85 19.254 1.156 21.157-2.581 21.123-4.209 21.055-5.806 21.021L-5.978 21.228C-5.672 22.211-5.466 22.886-5.228 23.875L-4.956 24.045C-3.397 24.008-.916 23.975 1.122 23.975 3.091 23.975 10.05 24.008 12.091 24.074L12.263 23.875C11.987 22.99 11.781 22.211 11.51 21.228L11.275 21.055C9.912 21.157 7.912 21.157 4.925 21.191 4.247 18.879 3.975 17.186 3.428 14.806L1.7 7.062C1.19 4.756 .713 2.581 .271 .206Z" fill="#1d1d1b"/>
<path transform="matrix(1,0,0,-1,203.1709,134.2373)" d="M0 0C.131 .785 .169 1.122 .169 1.492 .1 4.583-2.447 4.827-3.328 4.827-7.237 4.827-8.56 1.224-8.932-.032-8.932-.032-2.175 0 0 0M.44-9.881C-.716-10.558-2.481-11.238-5.094-11.238-10.903-11.238-12.976-7.777-12.976-3.867-12.976 2.074-9.341 7.203-3.466 7.203 .54 7.203 3.391 5.369 3.391 .848 3.391-.54 3.091-1.729 2.981-2.243L2.75-2.407C.981-2.407-2.247-2.375-5.197-2.375-6.729-2.375-7.847-2.375-9.375-2.443-9.409-2.646-9.476-3.256-9.476-3.904-9.476-8.353-5.606-8.453-4.382-8.453-1.562-8.453-.106-7.363 1.222-6.415L1.49-6.589C1.118-7.707 .878-8.49 .609-9.642Z" fill="#1d1d1b"/>
<path transform="matrix(1,0,0,-1,220.1484,144.5273)" d="M0 0C-1.187-.679-3.19-.948-4.378-.948-8.759-.948-11.781 2.347-11.781 6.657-11.781 9.479-10.559 13.856-6.824 16.133-4.853 17.32-2.787 17.493-1.865 17.493 .51 17.493 2.375 16.914 3.395 16.133L3.5 15.894C3.125 14.911 2.922 14.2 2.65 13.211L2.313 13.11C1.766 14.026 .272 14.81-1.524 14.81-5.771 14.81-8.081 10.325-8.081 6.931-8.081 2.959-4.99 1.8-3.359 1.8-2.787 1.8-1.021 1.87 .778 3.433L1.054 3.298C.682 2.175 .476 1.396 .207 .239Z" fill="#1d1d1b"/>
<path transform="matrix(1,0,0,-1,237.874,145.0693)" d="M0 0C-1.288 0-2.203-.033-3.463-.066L-3.635 .139C-3.328 1.362-2.956 2.818-2.682 4.042L-1.7 8.321C-1.497 9.237-.919 11.853-.919 12.769-.919 15.145-3.022 15.245-3.635 15.245-5.737 15.245-7.744 13.853-8.319 13.348L-9.679 7.3C-10.222 4.925-10.628 2.648-11.106 .238L-11.344 .034C-12.597 .034-13.513 0-14.772-.033L-14.972 .168C-14.5 2.342-9.847 21.089-9.335 26.184L-9.065 26.386C-7.71 26.589-6.726 26.727-5.362 27L-5.197 26.761C-6.15 23.193-6.894 19.63-7.781 16.029-6.726 16.743-4.719 18.035-1.9 18.035-1.022 18.035 2.784 17.832 2.784 13.753 2.784 12.259 2.446 10.698 2.172 9.473L1.256 5.367C.884 3.67 .544 1.903 .237 .206Z" fill="#1d1d1b"/>
<path transform="matrix(1,0,0,-1,257.5049,145.0693)" d="M0 0C-1.287 0-2.175-.033-3.462-.104L-3.6 .139C-3.125 2.412-2.649 3.94-2.175 6.18L-1.359 10.056C-1.256 10.563-.984 11.646-.984 12.566-.984 15.079-3.193 15.181-3.872 15.181-5.94 15.181-7.571 13.957-8.356 13.379-9.306 9-10.29 4.617-11.103 .206L-11.344 0C-12.631 0-13.513-.033-14.803-.104L-14.972 .139C-13.853 4.617-11.719 14.061-11.412 17.117L-11.175 17.353C-9.85 17.524-8.896 17.693-7.571 17.964L-7.403 17.728-7.878 15.993C-5.396 17.894-2.956 18.066-2.175 18.066-1.159 18.066 2.753 17.894 2.753 13.551 2.753 12.431 2.313 10.154 1.628 6.998L1.122 4.586C.781 2.953 .476 1.839 .272 .206Z" fill="#1d1d1b"/>
<path transform="matrix(1,0,0,-1,270.0674,142.9639)" d="M0 0C5.132 0 5.981 8.288 5.981 9.441 5.981 12.734 3.976 13.449 2.447 13.449-2.237 13.449-3.528 6.483-3.528 4.041-3.528 1.869-2.509 0 0 0M2.313 15.93C6.522 15.93 9.578 13.786 9.578 9.27 9.578 5.705 7.947-2.512-.068-2.512-2.206-2.512-7.131-2-7.131 4.278-7.131 9.781-4.138 15.93 2.313 15.93" fill="#1d1d1b"/>
<path transform="matrix(1,0,0,-1,284.877,145.0693)" d="M0 0C-1.256-.033-2.172-.033-3.459-.104L-3.597 .105C-3.091 2.854 .544 17.728 1.734 26.184L1.972 26.423C3.362 26.623 4.318 26.795 5.709 27.065L5.875 26.86C4.178 19.524 .747 3.329 .275 .206Z" fill="#1d1d1b"/>
<path transform="matrix(1,0,0,-1,297.3047,142.9639)" d="M0 0C5.132 0 5.979 8.288 5.979 9.441 5.979 12.734 3.973 13.449 2.444 13.449-2.24 13.449-3.527 6.483-3.527 4.041-3.527 1.869-2.512 0 0 0M2.31 15.93C6.522 15.93 9.578 13.786 9.578 9.27 9.578 5.705 7.947-2.512-.068-2.512-2.209-2.512-7.131-2-7.131 4.278-7.131 9.781-4.141 15.93 2.31 15.93" fill="#1d1d1b"/>
<path transform="matrix(1,0,0,-1,323.1836,130.0557)" d="M0 0C0 0-1.02 .029-1.322 .029-4.379 .029-7.676-.513-9.541-4.482-10.359-6.253-10.46-7.644-10.46-8.391-10.46-11.924-8.185-12.736-6.481-12.736-4.619-12.736-3.26-11.784-2.513-11.073ZM4.175 2.442C3.225-1.396 2.378-4.896 1.562-8.729L.615-13.213C-.575-18.852-1.56-23.602-8.997-23.602-11.035-23.602-14.088-23.128-15.994-21.058V-20.783C-15.481-20.003-15.145-19.428-14.635-18.612H-14.363C-13.444-19.802-11.75-21.025-9.238-21.025-4.179-21.025-3.766-16.337-3.395-15.18L-3.057-13.792C-5.294-15.35-7.304-15.388-8.044-15.388-12.054-15.388-14.16-12.331-14.16-8.799-14.16-7.951-14.022-5.064-12.226-2.279-9.031 2.644-3.938 2.644-.035 2.644 1.662 2.644 4.04 2.714 4.04 2.714Z" fill="#1d1d1b"/>
<path transform="matrix(1,0,0,-1,345.7676,127.6494)" d="M0 0C-4.078-6.588-13.615-22.581-14.909-25.467L-15.178-25.669H-16.709C-17.388-25.669-18.031-25.669-18.713-25.705L-18.812-25.467C-17.828-23.974-14.466-18.776-13.65-17.281-14.947-8.831-16.197-.442-16.369-.033L-16.131 .205C-14.838 .205-13.925 .273-12.6 .378L-12.328 .205C-12.156-1.666-12.053-2.984-11.818-4.822L-10.838-12.834-7.534-6.995C-6.25-4.722-4.959-2.406-3.737 .036L-3.466 .237C-3.094 .205-2.719 .205-2.344 .205-1.531 .205-.95 .237-.169 .273Z" fill="#1d1d1b"/>
<path transform="matrix(1,0,0,-1,131.1597,186.8291)" d="M0 0C-1.292-.036-2.173-.068-3.429-.138L-3.599 .068C-2.411 5.604-3.09 2.344-.306 15.045-.951 15.045-1.937 15.011-2.888 15.011L-3.09 15.214C-2.854 16.062-2.682 16.639-2.478 17.489L-2.207 17.729C-1.325 17.659-.68 17.625 .202 17.625L.712 20.07C1.461 23.705 2.105 26.761 6.857 26.761 8.048 26.761 8.83 26.553 9.338 26.455L9.508 26.183C9.271 25.331 9.101 24.721 8.896 23.877L8.625 23.669C8.388 23.705 7.912 23.906 7.302 23.906 5.162 23.906 4.823 22.514 4.21 19.799L3.736 17.625H4.312C5.299 17.625 5.977 17.625 6.962 17.659L7.131 17.386C6.892 16.709 6.724 16.026 6.487 15.214L6.215 14.977C5.127 15.011 4.347 15.045 3.226 15.045 2.14 9.644 1.018 5.5 .237 .203Z" fill="#1d1d1b"/>
<path transform="matrix(1,0,0,-1,144.6743,184.7227)" d="M0 0C5.126 0 5.976 8.287 5.976 9.442 5.976 12.731 3.975 13.448 2.446 13.448-2.241 13.448-3.533 6.485-3.533 4.04-3.533 1.865-2.512 0 0 0M2.307 15.925C6.519 15.925 9.576 13.787 9.576 9.271 9.576 5.704 7.946-2.515-.068-2.515-2.207-2.515-7.132-2.003-7.132 4.276-7.132 9.783-4.143 15.925 2.307 15.925" fill="#1d1d1b"/>
<path transform="matrix(1,0,0,-1,159.3135,186.8291)" d="M0 0C-1.327 0-2.244-.036-3.533-.068L-3.701 .139C-2.275 5.469-.341 14.227 0 17.116L.235 17.352C1.597 17.523 2.58 17.659 3.907 17.928L4.075 17.69C3.803 16.709 3.599 15.825 3.326 14.706 3.836 15.555 5.331 18.065 7.743 18.065 8.489 18.065 8.963 17.894 9.306 17.69L9.406 17.386C8.896 16.166 8.558 15.314 8.081 14.061L7.743 13.955C7.504 14.125 6.963 14.437 6.316 14.437 5.399 14.437 3.293 13.955 2.239 9.544 1.933 8.252 .577 2.412 .271 .237Z" fill="#1d1d1b"/>
<path transform="matrix(1,0,0,-1,196.1953,186.7949)" d="M0 0C-.987 0-2.313-.07-3.668-.07L-3.806 .104C-2.79 4.314-2.074 7.265-1.159 11.515-2.446 11.547-3.362 11.547-4.621 11.547H-8.188C-9.678 11.547-10.734 11.547-12.259 11.444-13.175 7.708-13.894 3.905-14.672 .169L-14.909-.034C-16.268-.034-17.222-.034-18.543-.103L-18.715 .135C-18.337 1.666-14.162 19.526-13.415 23.771L-13.175 23.974C-11.818 23.974-10.868 24.008-9.547 24.042L-9.378 23.843C-10.359 19.765-10.259 20.408-11.584 14.366-11.446 14.366-10.19 14.33-9.274 14.33-6.25 14.33-2.821 14.366-.512 14.432 .679 19.866 1.085 21.866 1.457 23.771L1.691 23.974C3.054 23.974 4.004 24.008 5.363 24.042L5.497 23.843C3.359 14.672 1.013 4.414 .231 .203Z" fill="#1d1d1b"/>
<path transform="matrix(1,0,0,-1,215.9521,186.7949)" d="M0 0C-1.216-.034-2.104-.07-3.322-.136L-3.497 .104-3.088 1.731C-4.854 .275-6.822-.371-8.622-.371-12.766-.371-13.682 2.444-13.682 4.28-13.682 5.5-13.413 6.789-12.8 9.476L-12.085 12.633C-11.747 14.129-11.472 15.18-11.101 17.315L-10.862 17.555C-9.606 17.555-8.726 17.625-7.469 17.694L-7.3 17.489C-8.55 12.328-9.944 6.932-9.944 5.398-9.944 4.414-9.675 2.479-7.025 2.479-5.497 2.479-3.969 3.125-2.51 4.452-.744 12.396 .037 16.236 .206 17.315L.475 17.522C1.734 17.555 2.618 17.625 3.909 17.694L4.044 17.455C2.99 13.481 .581 2.511 .24 .203Z" fill="#1d1d1b"/>
<path transform="matrix(1,0,0,-1,245.6396,186.8291)" d="M0 0C-1.222 0-2.106-.036-3.331-.068L-3.531 .169C-3.025 2.141-2.55 4.209-2.075 6.217L-1.463 8.831C-.987 10.869-.784 12.158-.784 12.803-.784 15.076-2.753 15.146-3.331 15.146-5.435 15.146-7.135 13.924-7.878 13.278-7.913 12.602-8.116 10.938-8.594 8.831L-9.369 5.263C-9.744 3.533-10.088 1.939-10.391 .203L-10.632 0C-11.885 0-12.772-.036-14.025-.068L-14.197 .203C-13.653 2.278-11.581 10.631-11.581 12.732-11.581 14.977-13.484 15.146-14.128 15.146-15.96 15.146-17.628 13.89-18.237 13.344L-19.359 8.284C-20.003 5.3-20.479 3.227-20.991 .203L-21.226 .034C-22.516 0-23.4 0-24.653-.068L-24.856 .169C-23.538 5.159-21.565 14.33-21.226 17.148L-21.025 17.35C-19.663 17.523-18.713 17.69-17.419 17.928L-17.219 17.69-17.659 15.961C-16.71 16.776-14.5 18.031-11.851 18.031-11.072 18.031-9 17.795-8.153 15.555-5.331 17.795-2.65 18.031-1.734 18.031 .747 18.031 2.884 16.674 2.884 13.89 2.884 12.732 2.612 11.479 2.31 10.117L1.728 7.542C1.118 4.857 .812 2.925 .237 .203Z" fill="#1d1d1b"/>
<path transform="matrix(1,0,0,-1,258.749,184.3838)" d="M0 0C1.053 0 2.753 .479 3.938 1.7 4.787 5.166 5.466 8.727 6.388 12.631 5.975 12.631 5.466 12.701 4.925 12.701 1.662 12.701-1.632 11.68-3.328 7.643-3.531 7.162-4.075 5.807-4.075 4.211-4.075 1.8-2.647 0 0 0M6.553-2.445H5.672C4.825-2.445 4.212-2.481 3.365-2.514L3.193-2.307 3.428-.95C1.834-2.242 .138-2.646-1.531-2.646-5.538-2.646-7.812 .339-7.812 3.975-7.812 6.486-6.726 8.83-6.213 9.713-3.394 14.671 1.631 15.245 5.196 15.245 6.79 15.245 10.256 15.18 10.256 15.18L10.425 14.94C7.675 2.955 7.231 1.021 6.79-2.242Z" fill="#1d1d1b"/>
<path transform="matrix(1,0,0,-1,284.9297,186.8291)" d="M0 0C-1.284 0-2.172-.036-3.459-.102L-3.597 .139C-3.125 2.412-2.646 3.939-2.172 6.182L-1.353 10.055C-1.256 10.56-.98 11.646-.98 12.567-.98 15.076-3.188 15.182-3.868 15.182-5.94 15.182-7.568 13.955-8.353 13.38-9.303 9.002-10.287 4.619-11.103 .203L-11.34 0C-12.628 0-13.512-.036-14.806-.102L-14.972 .139C-13.853 4.619-11.715 14.061-11.409 17.116L-11.172 17.35C-9.847 17.523-8.896 17.69-7.568 17.963L-7.402 17.729-7.878 15.995C-5.394 17.894-2.953 18.065-2.172 18.065-1.152 18.065 2.754 17.894 2.754 13.552 2.754 12.43 2.31 10.153 1.632 6.994L1.122 4.586C.778 2.953 .479 1.834 .278 .203Z" fill="#1d1d1b"/>
<path transform="matrix(1,0,0,-1,298.1084,164.4131)" d="M0 0C-1.325-.172-2.241-.272-3.563-.479L-3.766-.207C-3.494 .949-3.291 1.762-3.057 2.915L-2.75 3.154C-1.422 3.324-.51 3.428 .784 3.628L1.053 3.392C.75 2.271 .544 1.425 .274 .27ZM-4.854-22.382C-6.179-22.382-7.132-22.416-8.453-22.484L-8.625-22.277C-7.541-18.341-5.125-7.133-4.956-5.3L-4.719-5.066C-3.322-4.893-2.372-4.757-1.019-4.522L-.847-4.757C-1.019-4.726-3.835-17.658-4.619-22.213Z" fill="#1d1d1b"/>
<path transform="matrix(1,0,0,-1,305.3115,186.7607)" d="M0 0C-1.125-.27-2.007-.306-2.447-.306-5.675-.306-6.487 1.355-6.487 3.057-6.487 4.349-5.775 7.336-4.791 11.447L-3.944 14.977H-4.619C-5.266 14.977-5.744 14.977-6.388 14.942L-6.557 15.182C-6.319 15.958-6.15 16.57-5.944 17.421L-5.71 17.591C-4.822 17.557-4.247 17.557-3.366 17.557-2.956 19.121-2.75 20.242-2.447 21.804L-2.206 22.039C-.885 22.314 .031 22.548 1.321 22.888L1.49 22.687C1.219 21.768 1.05 21.088 .815 20.171L.169 17.557C1.56 17.557 2.509 17.557 3.868 17.622L4.037 17.39C3.734 16.57 3.563 15.958 3.325 15.146L3.087 14.942C1.797 14.977 .881 14.977-.409 14.977L-2.244 7.302C-2.413 6.622-2.891 4.518-2.891 3.838-2.891 2.75-2.106 2.377-1.226 2.377-.344 2.377 .472 2.716 .778 2.819L.95 2.647C.678 1.766 .472 1.155 .234 .272Z" fill="#1d1d1b"/>
<path transform="matrix(1,0,0,-1,326.0361,169.4092)" d="M0 0C-4.075-6.589-13.615-22.579-14.906-25.465L-15.178-25.673H-16.706C-17.381-25.673-18.028-25.673-18.709-25.703L-18.81-25.465C-17.821-23.973-14.462-18.777-13.649-17.281-14.938-8.828-16.196-.443-16.365-.034L-16.128 .205C-14.834 .205-13.919 .271-12.597 .375L-12.321 .205C-12.156-1.665-12.053-2.983-11.815-4.818L-10.828-12.834-7.531-6.993C-6.247-4.72-4.956-2.409-3.734 .038L-3.462 .239C-3.087 .205-2.716 .205-2.341 .205-1.524 .205-.946 .239-.169 .271Z" fill="#1d1d1b"/>
<path transform="matrix(1,0,0,-1,0,198)" d="M116.78 182.364H137.795V106.499H116.78Z" fill="#1d1d1b"/>
<path transform="matrix(1,0,0,-1,148.8232,91.5015)" d="M0 0V75.865H57.788V61.157H21.013V45.502H54.845V30.79H21.013V14.716H57.788V0Z" fill="#1d1d1b"/>
<path transform="matrix(1,0,0,-1,218.3867,91.5015)" d="M0 0V75.865H57.774V61.157H21.009V45.502H54.828V30.79H21.009V14.716H57.774V0Z" fill="#1d1d1b"/>
<path transform="matrix(1,0,0,-1,287.9268,91.5015)" d="M0 0V75.865H57.791V61.157H21.028V45.502H54.851V30.79H21.028V14.716H57.791V0Z" fill="#1d1d1b"/>
<path transform="matrix(1,0,0,-1,50.1724,61.180696)" d="M0 0C-.278-5.356-.347-10.314-.742-15.687 1.377-15.877 3.77-16.063 6.03-15.734L5.356-.764 5.237-.049C3.515-.117 1.886-.187 0 0M-13.242 15.042C-15.853 13.733-19.695 11.755-19.272 8.173-18.712 6.218-16.595 4.956-14.919 4.148-5.658 .069 6.637-.071 16.416 2.975 18.83 3.908 22.069 5.257 22.513 8.214 22.487 10.658 19.901 12.196 18.042 13.131V13.247C18.69 13.504 19.435 13.733 20.107 13.805V13.87C16.831 14.456 13.669 15.313 10.497 16.152 11.108 14.76 11.548 13.292 12.058 11.845 13.011 12.15 13.989 12.382 15.017 12.522 16.69 11.871 19.085 10.939 19.322 8.847 19.508 6.892 17.368 5.939 16.016 5.146 8.844 2.535 .774 2.281-6.706 4.263-8.772 4.917-11.754 5.752-12.01 8.382-10.543 11.845-6.751 12.566-3.583 13.408-5.211 14.456-6.866 15.385-8.445 16.552-10.148 16.458-11.706 15.712-13.242 15.042M2.604 35.939 1.676 32.958-2.98 19.623C-1.815 19.504-.371 19.623 .774 19.504V19.394L.093 4.31 .211 4.148C1.7 4.004 3.56 3.929 5.077 4.188V4.426L4.47 19.058 4.561 19.553 8.658 19.623C6.614 25.021 4.632 30.474 2.724 35.939ZM.44 42.639C3.866 44.973 6.939 41.711 9.593 39.846 19.855 31.587 29.539 22.133 36.917 11.456 37.848 10.078 38.267 7.939 37.434 6.38 35.52 3.188 32.94 .276 30.493-2.681V-2.841C24.392-9.335 17.949-16.013 10.986-21.512 7.589-23.581 4.47-28.097 .093-25.299-9.872-18.016-19.408-8.963-27.493 .748-28.863 2.885-31.004 4.634-31.957 7.055-33.288 10.333-30.354 12.687-28.675 15.155-20.433 25.322-10.196 35.291 .44 42.639M9.03 52.349 5.237 57.724C4.772 58.009 4.191 58.477 3.679 58.615 2.559 59.099 1.353 58.513 .44 57.82L-6.423 48.88C-17.434 35.245-30.468 22.51-44.689 12.749-45.813 11.871-47.485 11.014-47.832 9.566-48.206 8.263-47.527 7.189-46.72 6.38-35.333-1.466-24.445-10.776-14.755-21.395-13.034-23.204-11.639-24.999-9.957-26.697-7.123-30.47-3.792-34.269-1.187-38.315-.371-39.172-.23-40.573 1.048-40.99 2.048-41.336 3.283-41.572 4.236-40.99L5.185-40.037C16.968-23.345 31.911-8.355 48.606 3.746 50.278 5.24 53.469 5.796 53.515 8.566 53.396 9.844 52.653 11.103 51.555 11.802L51.281 11.845C42.69 17.69 34.685 24.3 27.143 31.798L18.809 40.505C15.432 44.249 12.151 48.394 9.03 52.349M-.791 44.691C2.559 47.298 6.774 45.134 9.593 42.736 12.545 40.479 15.62 37.923 18.318 35.31L18.809 35.028C26.282 28.095 33.222 20.389 38.924 12.241 39.848 10.823 40.665 9.217 40.149 7.335 38.247 2.582 34.384-1.208 31.006-5.356 23.698-13.225 15.989-20.836 7.358-26.909 5.612-28.142 3.258-29.283 1.167-28.304-5.186-24.978-10.543-19.531-16.103-14.567-22.552-8.587-29.024-1.626-33.912 5.655-34.638 6.68-34.842 7.939-34.821 9.287-34.192 11.802-32.471 13.87-30.841 15.989-25.065 23.349-17.992 30.33-10.849 36.707-10.684 36.87-10.378 37.217-10.12 37.384-7.052 40.036-4.004 42.384-.791 44.691" fill="#1d1d1b"/>
<path transform="matrix(1,0,0,-1,70.0806,94.9995)" d="M0 0H-.723V.917H-.151C.158 .917 .579 .885 .579 .492 .579 .074 .364 0 0 0M1.44 .41C1.44 1.279 .866 1.553-.117 1.553H-1.535V-2.24H-.723V-.646H-.337L.536-2.24H1.503L.524-.577C1.037-.534 1.44-.287 1.44 .41M-.137-3.059V-3.047C-1.535-3.059-2.661-1.97-2.661-.341-2.661 1.279-1.535 2.357-.137 2.357 1.228 2.357 2.39 1.279 2.39-.341 2.39-1.97 1.228-3.059-.137-3.059M-.137 3.179C-2.011 3.179-3.677 1.882-3.677-.341-3.677-2.573-2.011-3.874-.137-3.874 1.725-3.874 3.393-2.573 3.393-.341 3.393 1.882 1.725 3.179-.137 3.179" fill="#1d1d1b" fill-rule="evenodd"/>
</g>
</g>
</svg>
